<svg xmlns="http://www.w3.org/2000/svg" xmlns:xlink="http://www.w3.org/1999/xlink" width="40" height="37" viewBox="0 0 40 37">
  <defs>
    <clipPath id="clip-บาสเกตบอล">
      <rect width="40" height="37"/>
    </clipPath>
  </defs>
  <g id="บาสเกตบอล" clip-path="url(#clip-บาสเกตบอล)">
    <g id="basketball" transform="translate(2.59 1.09)">
      <g id="Group_24" data-name="Group 24" transform="translate(5.88 0.024)">
        <g id="Group_23" data-name="Group 23">
          <path id="Path_659" data-name="Path 659" d="M96.655.47l-.02-.118A17.359,17.359,0,0,0,86.464,4.665L97.994,16.2l3.9-3.9A25.635,25.635,0,0,1,96.655.47Z" transform="translate(-86.464 -0.352)" fill="#2a2866"/>
        </g>
      </g>
      <g id="Group_26" data-name="Group 26" transform="translate(18.27)">
        <g id="Group_25" data-name="Group 25">
          <path id="Path_660" data-name="Path 660" d="M268.64,0a23.35,23.35,0,0,0,4.588,10.422l6.083-6.083A17.347,17.347,0,0,0,268.64,0Z" transform="translate(-268.64)" fill="#2a2866"/>
        </g>
      </g>
      <g id="Group_28" data-name="Group 28" transform="translate(24.4 5.88)">
        <g id="Group_27" data-name="Group 27">
          <path id="Path_661" data-name="Path 661" d="M364.867,86.464l-6.083,6.083a23.307,23.307,0,0,0,10.42,4.588A17.344,17.344,0,0,0,364.867,86.464Z" transform="translate(-358.784 -86.464)" fill="#2a2866"/>
        </g>
      </g>
      <g id="Group_30" data-name="Group 30" transform="translate(5.066 5.064)">
        <g id="Group_29" data-name="Group 29">
          <path id="Path_662" data-name="Path 662" d="M74.5,74.475l0,0,0-.007Z" transform="translate(-74.496 -74.464)" fill="#2a2866"/>
        </g>
      </g>
      <g id="Group_32" data-name="Group 32" transform="translate(0.024 5.88)">
        <g id="Group_31" data-name="Group 31">
          <path id="Path_663" data-name="Path 663" d="M4.665,86.464A17.359,17.359,0,0,0,.352,96.636l.118.02A25.635,25.635,0,0,1,12.293,101.9l3.9-3.9Z" transform="translate(-0.352 -86.464)" fill="#2a2866"/>
        </g>
      </g>
      <g id="Group_34" data-name="Group 34" transform="translate(0 18.27)">
        <g id="Group_33" data-name="Group 33">
          <path id="Path_664" data-name="Path 664" d="M0,268.64a17.358,17.358,0,0,0,4.339,10.672l6.083-6.083A23.306,23.306,0,0,0,0,268.64Z" transform="translate(0 -268.64)" fill="#2a2866"/>
        </g>
      </g>
      <g id="Group_36" data-name="Group 36" transform="translate(5.88 24.398)">
        <g id="Group_35" data-name="Group 35">
          <path id="Path_665" data-name="Path 665" d="M92.547,358.752l-6.083,6.085a17.35,17.35,0,0,0,10.67,4.337A23.35,23.35,0,0,0,92.547,358.752Z" transform="translate(-86.464 -358.752)" fill="#2a2866"/>
        </g>
      </g>
      <g id="Group_38" data-name="Group 38" transform="translate(13.508 18.953)">
        <g id="Group_37" data-name="Group 37">
          <path id="Path_666" data-name="Path 666" d="M202.526,278.688l-3.9,3.9a25.678,25.678,0,0,1,5.24,11.821l.02.117a17.359,17.359,0,0,0,10.172-4.313Z" transform="translate(-198.624 -278.688)" fill="#2a2866"/>
        </g>
      </g>
      <g id="Group_40" data-name="Group 40" transform="translate(18.953 13.508)">
        <g id="Group_39" data-name="Group 39">
          <path id="Path_667" data-name="Path 667" d="M294.414,203.864a25.676,25.676,0,0,1-11.824-5.24l-3.9,3.9,11.53,11.53a17.346,17.346,0,0,0,4.313-10.172Z" transform="translate(-278.688 -198.624)" fill="#2a2866"/>
        </g>
      </g>
    </g>
  </g>
</svg>
