<svg xmlns="http://www.w3.org/2000/svg" xmlns:xlink="http://www.w3.org/1999/xlink" width="49" height="35" viewBox="0 0 49 35">
  <defs>
    <clipPath id="clip-จักยาาน">
      <rect width="49" height="35"/>
    </clipPath>
  </defs>
  <g id="จักยาาน" clip-path="url(#clip-จักยาาน)">
    <path id="Icon_awesome-bicycle" data-name="Icon awesome-bicycle" d="M38.191,14.038a9.516,9.516,0,0,0-3.46.633L28.942,5.345a1.788,1.788,0,0,0-1.52-.845H22.653a1.192,1.192,0,0,0-1.192,1.192V6.885a1.192,1.192,0,0,0,1.192,1.192h3.774l1.11,1.788H19.077V8.673a1.192,1.192,0,0,0-1.192-1.192H11.367A1.821,1.821,0,0,0,9.539,9.3a1.788,1.788,0,0,0,1.788,1.756h3.631L12.766,14.6a9.539,9.539,0,1,0,6.01,11.362h3.877a1.788,1.788,0,0,0,1.521-.847L30.58,14.766l1.113,1.793A9.513,9.513,0,0,0,28.615,23.6a9.662,9.662,0,0,0,9.444,9.517,9.538,9.538,0,1,0,.133-19.076Zm-24.275,5.5a5.95,5.95,0,0,1,1.464,2.849H12.153l1.763-2.849Zm-4.378,10a5.961,5.961,0,1,1,1.274-11.784L7.422,23.231a1.79,1.79,0,0,0,1.521,2.73H15A5.969,5.969,0,0,1,9.538,29.538Zm12.119-7.154H19a9.519,9.519,0,0,0-3.158-5.963l1.844-2.979h9.5Zm16.175,7.145a5.957,5.957,0,0,1-4.195-9.838l3.311,5.334a1.192,1.192,0,0,0,1.642.384l1.013-.629a1.192,1.192,0,0,0,.384-1.642L36.673,17.8a5.962,5.962,0,1,1,1.158,11.728Z" transform="translate(0.654 -1.308)" fill="#2a2866"/>
  </g>
</svg>
