<svg xmlns="http://www.w3.org/2000/svg" xmlns:xlink="http://www.w3.org/1999/xlink" width="49" height="26" viewBox="0 0 49 26">
  <defs>
    <clipPath id="clip-โบท์">
      <rect width="49" height="26"/>
    </clipPath>
  </defs>
  <g id="โบท์" clip-path="url(#clip-โบท์)">
    <g id="jet-bike" transform="translate(0.262 -16.145)">
      <path id="Path_631" data-name="Path 631" d="M0,32.7H48.475s-1.083,5.557-3.707,5.557H6.022C1.39,38.258,0,32.7,0,32.7Zm10.806-1.234h37.67S43.224,22.2,36.123,19.425s-3.4,1.853-3.4,1.853l-.47.527-2.095-1.631h-2.99v1.236H29.74l1.7,1.319-4.368,4.886c-6.272-.6-15.463-2.039-17.84-5.41C5.741,17.266,8,26.774,8.275,27.91H2.78L0,31.468H7.99Z" transform="translate(0 0)" fill="#2a2866"/>
    </g>
  </g>
</svg>
