<svg xmlns="http://www.w3.org/2000/svg" xmlns:xlink="http://www.w3.org/1999/xlink" width="49" height="49" viewBox="0 0 49 49">
  <defs>
    <clipPath id="clip-โบว์ลิ่ง">
      <rect width="49" height="49"/>
    </clipPath>
  </defs>
  <g id="โบว์ลิ่ง" clip-path="url(#clip-โบว์ลิ่ง)">
    <g id="bowling" transform="translate(2.338 2.309)">
      <g id="Group_42" data-name="Group 42" transform="translate(0 16.968)">
        <g id="Group_41" data-name="Group 41">
          <path id="Path_668" data-name="Path 668" d="M14.158,191.766a14.158,14.158,0,1,0,14.158,14.158A14.16,14.16,0,0,0,14.158,191.766ZM9.967,205.924a1.428,1.428,0,0,1-1.43-1.416,1.4,1.4,0,0,1,1.4-1.416h.028a1.416,1.416,0,1,1,0,2.832Zm2.832-5.663a1.428,1.428,0,0,1-1.43-1.416,1.4,1.4,0,0,1,1.4-1.416H12.8a1.416,1.416,0,1,1,0,2.832Zm2.832,5.663a1.428,1.428,0,0,1-1.43-1.416,1.4,1.4,0,0,1,1.4-1.416h.028a1.416,1.416,0,1,1,0,2.832Z" transform="translate(0 -191.766)" fill="#2a2866"/>
        </g>
      </g>
      <g id="Group_44" data-name="Group 44" transform="translate(27.937 14.136)">
        <g id="Group_43" data-name="Group 43">
          <path id="Path_669" data-name="Path 669" d="M329.686,169a19.157,19.157,0,0,1-2.939-9.231h-6.756a19.26,19.26,0,0,1-2.945,9.228s0,.008-.006.011a16.9,16.9,0,0,1-1.328,17.664.152.152,0,0,0,.017.028l2.472,3.619a1.419,1.419,0,0,0,1.169.617h7.991a1.419,1.419,0,0,0,1.169-.617L331,186.7C334.8,181.136,332.815,173.907,329.686,169Z" transform="translate(-315.712 -159.766)" fill="#2a2866"/>
        </g>
      </g>
      <g id="Group_46" data-name="Group 46" transform="translate(31.206 0)">
        <g id="Group_45" data-name="Group 45">
          <path id="Path_670" data-name="Path 670" d="M360.3,1.45a4.429,4.429,0,0,0-6.533,0,4.5,4.5,0,0,0-1.076,3.557l.442,3.4a19.055,19.055,0,0,1,.464,2.911h6.886a19.9,19.9,0,0,1,.487-3.092l.408-3.217A4.506,4.506,0,0,0,360.3,1.45Z" transform="translate(-352.65 -0.014)" fill="#2a2866"/>
        </g>
      </g>
    </g>
  </g>
</svg>
