<svg xmlns="http://www.w3.org/2000/svg" xmlns:xlink="http://www.w3.org/1999/xlink" width="49" height="49" viewBox="0 0 49 49">
  <defs>
    <clipPath id="clip-Football">
      <rect width="49" height="49"/>
    </clipPath>
  </defs>
  <g id="Football" clip-path="url(#clip-Football)">
    <path id="Icon_ionic-md-football" data-name="Icon ionic-md-football" d="M24.2,3.375A20.824,20.824,0,1,0,45.023,24.2,20.847,20.847,0,0,0,24.2,3.375ZM11.284,22.417l3.925,1.792,1.712,6.7L15.359,33.84l-5.727-.07a17.486,17.486,0,0,1-2.753-7.539ZM33.04,33.84l-1.562-2.933L33.19,24.2,37.1,22.417l4.405,3.814a17.358,17.358,0,0,1-2.753,7.539ZM36.283,19.2l-4.365,1.962L25.8,16V11.274L30.6,8.01A17.852,17.852,0,0,1,38.165,13.8ZM17.722,8.02,22.5,11.274V16L16.39,21.156l-4.305-1.962-1.872-5.366A17.338,17.338,0,0,1,17.722,8.02Zm2.713,33.2c-.07-.02-.13-.03-.2-.05l-2.052-5.516,1.472-2.943h9.091l1.5,3.034-1.982,5.4c-.1.02-.2.05-.3.07a25.241,25.241,0,0,1-4.045.41A16.977,16.977,0,0,1,20.435,41.219Z" transform="translate(0.965 -0.699)" fill="#2a2866"/>
  </g>
</svg>
