<svg xmlns="http://www.w3.org/2000/svg" xmlns:xlink="http://www.w3.org/1999/xlink" width="49" height="49" viewBox="0 0 49 49">
  <defs>
    <clipPath id="clip-กอฟล์">
      <rect width="49" height="49"/>
    </clipPath>
  </defs>
  <g id="กอฟล์" clip-path="url(#clip-กอฟล์)">
    <path id="Icon_awesome-golf-ball" data-name="Icon awesome-golf-ball" d="M8.42,36.486H28.066a2.8,2.8,0,0,1-2.807,2.807h-1.4A2.8,2.8,0,0,0,21.05,42.1v1.754A1.056,1.056,0,0,1,20,44.906H16.489a1.056,1.056,0,0,1-1.052-1.052V42.1a2.8,2.8,0,0,0-2.807-2.807h-1.4A2.8,2.8,0,0,1,8.42,36.486ZM36.486,18.243A18.215,18.215,0,0,1,27.935,33.68H8.551A18.236,18.236,0,1,1,36.486,18.243Zm-15.8,3.85a2.887,2.887,0,0,0,.965-5.613,2.852,2.852,0,0,1-3.675,3.675A2.883,2.883,0,0,0,20.69,22.094ZM25,26.207a2.883,2.883,0,0,0-1.938-2.71,2.852,2.852,0,0,1-3.675,3.675A2.887,2.887,0,0,0,25,26.207Zm5.613-5.613a2.883,2.883,0,0,0-1.938-2.71A2.852,2.852,0,0,1,25,21.559a2.887,2.887,0,0,0,5.613-.965Z" transform="translate(6.257 2.047)" fill="#2a2866"/>
  </g>
</svg>
