<svg xmlns="http://www.w3.org/2000/svg" xmlns:xlink="http://www.w3.org/1999/xlink" width="49" height="39" viewBox="0 0 49 39">
  <defs>
    <clipPath id="clip-จักรยานยนต์">
      <rect width="49" height="39"/>
    </clipPath>
  </defs>
  <g id="จักรยานยนต์" clip-path="url(#clip-จักรยานยนต์)">
    <g id="motorcycle" transform="translate(1.348 3.363)">
      <path id="Path_671" data-name="Path 671" d="M39.522,18.992a6.7,6.7,0,0,0-3.072.77l-1.834-2.179a9.05,9.05,0,0,1,2.622-1.058,11.046,11.046,0,0,1,2.292-.245,3.873,3.873,0,0,0,2.75-1.129,4.26,4.26,0,0,0,1.222-3.1A12.15,12.15,0,0,0,31.468,0H29.935a1.357,1.357,0,1,0,0,2.713h1.533a9.161,9.161,0,0,1,1.18.12V5.454a6.727,6.727,0,0,0-2.232.642c-.009-.01-.02-.017-.029-.027A6.766,6.766,0,0,0,27.62,8.447l-3.088,4.631a1.36,1.36,0,0,1-.923.588,8.553,8.553,0,0,0-6.377,4.73,10.791,10.791,0,0,1,1.852,6.022h-2.8a8.259,8.259,0,1,0-.5,2.713h12.8a1.356,1.356,0,0,0,1.357-1.357,10.178,10.178,0,0,1,.266-2.286,9.258,9.258,0,0,1,2.3-4.2l1.831,2.176a6.717,6.717,0,0,0-1.593,4.314,6.783,6.783,0,1,0,6.783-6.783ZM8.139,29.845a5.426,5.426,0,1,1,5.426-5.426H9.5a1.357,1.357,0,0,1-1.357-1.357,1.357,1.357,0,0,0-2.713,0,4.074,4.074,0,0,0,4.07,4.07h3.315A5.408,5.408,0,0,1,8.139,29.845Zm31.382,0a4.074,4.074,0,0,1-4.07-4.07,4.032,4.032,0,0,1,.622-2.137l2.388,2.985a1.357,1.357,0,0,0,2.12-1.7L38.2,21.946a4.017,4.017,0,0,1,1.325-.24,4.07,4.07,0,0,1,0,8.139Zm0,0" fill="#2a2866"/>
      <path id="Path_672" data-name="Path 672" d="M176.345,37.715l2.324-3.486a9.453,9.453,0,0,1,2.824-2.724A9.4,9.4,0,0,0,176.46,30a9.522,9.522,0,0,0-7.909,4.254l2.17,1.3A18.1,18.1,0,0,0,176.345,37.715Zm0,0" transform="translate(-153.307 -27.287)" fill="#2a2866"/>
      <path id="Path_673" data-name="Path 673" d="M16.017,65.169,7.312,60H1.357A1.356,1.356,0,0,0,0,61.357a6.791,6.791,0,0,0,6.783,6.783c2.714,0,5.528.059,8.544,2.681.012-.022.012-.046.025-.067a11.242,11.242,0,0,1,4.242-3.926A20.8,20.8,0,0,1,16.017,65.169Zm0,0" transform="translate(0 -54.574)" fill="#2a2866"/>
    </g>
  </g>
</svg>
