<svg xmlns="http://www.w3.org/2000/svg" xmlns:xlink="http://www.w3.org/1999/xlink" width="49" height="49" viewBox="0 0 49 49">
  <defs>
    <clipPath id="clip-ตะกร้า">
      <rect width="49" height="49"/>
    </clipPath>
  </defs>
  <g id="ตะกร้า" clip-path="url(#clip-ตะกร้า)">
    <g id="_500_F_222377393_PID4DlI1WHQqoRWLltM2PyryIOc9rO76-01" data-name="500_F_222377393_PID4DlI1WHQqoRWLltM2PyryIOc9rO76-01" transform="translate(-97.139 -221.109)">
      <path id="Path_638" data-name="Path 638" d="M161.141,363.57c-1.108-.846-2.133-1.611-3.128-2.414a.672.672,0,0,1-.1-.6c.7-1.9,1.367-3.819,2.153-5.685s1.62-3.713,2.568-5.5c1.043-1.965,2.239-3.849,3.37-5.766a3.964,3.964,0,0,1,.27-.36l2.534,3.313A72.707,72.707,0,0,0,161.141,363.57Z" transform="translate(-50.803 -106.166)" fill="#2a2866"/>
      <path id="Path_639" data-name="Path 639" d="M282.166,462.69c-.178,1.345-.354,2.59-.5,3.84-.046.4-.337.38-.587.43a66.745,66.745,0,0,1-10.313,1.366c-2.572.115-5.156.089-7.726.124H262.02c.079-.248.12-.417.184-.576.4-.963.812-1.918,1.189-2.889a.677.677,0,0,1,.768-.5,61.336,61.336,0,0,0,10.014-.454c2.5-.341,4.972-.825,7.46-1.245C281.766,462.764,281.911,462.736,282.166,462.69Z" transform="translate(-143.514 -212.502)" fill="#2a2866"/>
      <path id="Path_640" data-name="Path 640" d="M274.521,274.7c-1.327.2-2.573.368-3.813.568-.392.063-.5-.184-.644-.447a72.345,72.345,0,0,0-8.48-12.288c-.664-.776-1.349-1.536-2.093-2.375,1.059-.445,2.085-.844,3.086-1.317a.947.947,0,0,1,1.323.312,78.238,78.238,0,0,1,10.348,14.981C274.325,274.3,274.4,274.458,274.521,274.7Z" transform="translate(-141.262 -30.889)" fill="#2a2866"/>
      <path id="Path_641" data-name="Path 641" d="M301.559,409.55c0,1.317-.011,2.538.006,3.757.006.395-.284.384-.513.425-2.732.485-5.452,1.1-8.2,1.4-2.9.316-5.832.329-8.751.479-.11.006-.219-.012-.386-.022a3,3,0,0,1,.14-.4c.558-1.068,1.129-2.129,1.682-3.2a.687.687,0,0,1,.689-.39c2.2-.129,4.409-.227,6.6-.488,2.242-.267,4.465-.7,6.692-1.08C300.169,409.912,300.815,409.724,301.559,409.55Z" transform="translate(-162.825 -165.192)" fill="#2a2866"/>
      <path id="Path_642" data-name="Path 642" d="M213,282.292c1.139-.644,2.224-1.274,3.333-1.865.117-.061.429.091.56.229a61.158,61.158,0,0,1,6.214,7.657c1.309,1.936,2.506,3.95,3.749,5.924.1.151.168.316.292.549-.691.049-1.317.1-1.945.137a19.606,19.606,0,0,1-2.077.076,1.045,1.045,0,0,1-.645-.445c-1.728-2.447-3.374-4.954-5.172-7.351-1.172-1.559-2.559-2.962-3.85-4.425C213.329,282.648,213.194,282.505,213,282.292Z" transform="translate(-99.872 -50.222)" fill="#2a2866"/>
      <path id="Path_643" data-name="Path 643" d="M209.279,386.6c.768,1.221,1.485,2.341,2.17,3.482a.746.746,0,0,1,.03.63,67.994,67.994,0,0,0-5.828,14.086c-.02.07-.048.137-.11.309-1.118-.658-2.214-1.3-3.291-1.975-.089-.056-.1-.362-.038-.516,1.04-2.844,1.986-5.729,3.182-8.508,1.02-2.371,2.329-4.619,3.511-6.92C209,387.019,209.116,386.863,209.279,386.6Z" transform="translate(-90.234 -144.76)" fill="#2a2866"/>
      <path id="Path_644" data-name="Path 644" d="M456.46,375.952a8.355,8.355,0,0,1-.589-4.189,46.465,46.465,0,0,0,.051-14.027c-.027-.2-.044-.392-.066-.587l.137-.11c.338.372.678.743,1.014,1.116.868.964,1.741,1.922,2.593,2.9a1.3,1.3,0,0,1,.315.668,21.519,21.519,0,0,1-3.143,13.786C456.692,375.648,456.587,375.774,456.46,375.952Z" transform="translate(-316.026 -118.443)" fill="#2a2866"/>
      <path id="Path_645" data-name="Path 645" d="M178.746,224.261c-.622.563-1.242,1.128-1.865,1.683a1.207,1.207,0,0,1-.38.206,50.4,50.4,0,0,0-13.612,7.632c-.07.055-.144.11-.329.24.174-.64.294-1.162.46-1.67.387-1.2.787-2.393,1.207-3.58a1.329,1.329,0,0,1,.427-.6,21.378,21.378,0,0,1,13.733-4.149,1.456,1.456,0,0,1,.2.033Z" transform="translate(-54.966 0)" fill="#2a2866"/>
      <path id="Path_646" data-name="Path 646" d="M121.3,508.21c1.15.444,2.3.409,3.263,1.207a48.549,48.549,0,0,0,12.986,7.618.736.736,0,0,1,.355.269c-1.189.284-2.374.6-3.57.847-2.263.473-2.272.469-4.272-.666a21.584,21.584,0,0,1-8.518-8.75C121.476,508.6,121.422,508.471,121.3,508.21Z" transform="translate(-18.233 -253.027)" fill="#2a2866"/>
      <path id="Path_647" data-name="Path 647" d="M258.428,533.019c-1.865.753-3.66,1.48-5.459,2.188a.786.786,0,0,1-.525-.037c-1.637-.676-3.266-1.371-4.9-2.05a.378.378,0,0,1-.256-.549q.454-1.437.878-2.883c.082-.281.219-.34.513-.338,2.743.018,5.486.008,8.223.025a.594.594,0,0,1,.471.271C257.732,530.72,258.053,531.8,258.428,533.019Z" transform="translate(-130.364 -271.848)" fill="#2a2866"/>
      <path id="Path_648" data-name="Path 648" d="M378.92,315.942c-1.134.267-2.284.548-3.445.79-.123.025-.357-.184-.446-.338-1.147-1.995-2.278-4-3.416-6-.261-.458-.561-.893-.863-1.374l2.533-2.743c.346.233.67.426.97.658q1.8,1.385,3.591,2.79a.831.831,0,0,1,.329.467c.276,1.842.527,3.687.781,5.532A.871.871,0,0,1,378.92,315.942Z" transform="translate(-240.315 -73.252)" fill="#2a2866"/>
      <path id="Path_649" data-name="Path 649" d="M154.914,305.57l2.585,2.8c-.871,1.464-1.737,2.879-2.564,4.317-.591,1.03-1.141,2.085-1.684,3.14a.484.484,0,0,1-.636.315c-.94-.228-1.885-.433-2.83-.636-.315-.068-.47-.2-.417-.558.263-1.77.507-3.544.768-5.315a.63.63,0,0,1,.2-.365C151.842,308.042,153.347,306.831,154.914,305.57Z" transform="translate(-43.212 -72.62)" fill="#2a2866"/>
      <path id="Path_650" data-name="Path 650" d="M357.2,533.4l-2.14-8.159c.786-.081,1.609-.173,2.436-.251.487-.046,1.1-.264,1.426-.051s.383.865.513,1.335q.658,2.377,1.269,4.767a.59.59,0,0,1-.11.5C359.473,532.184,358.332,532.789,357.2,533.4Z" transform="translate(-226.347 -267.84)" fill="#2a2866"/>
      <path id="Path_651" data-name="Path 651" d="M339.41,249.915c1.573-1.5,3.13-2.986,4.7-4.459a.569.569,0,0,1,.5-.11c1.106.629,2.194,1.289,3.291,1.944l-6.074,5.952Z" transform="translate(-212.414 -18.983)" fill="#2a2866"/>
      <path id="Path_652" data-name="Path 652" d="M109.068,399.1c-.542,1.2-1.087,2.4-1.679,3.716-2.114-.588-4.218-1.169-6.319-1.767a.421.421,0,0,1-.25-.3c0-1.268.016-2.537.031-3.817Z" transform="translate(0 -153.956)" fill="#2a2866"/>
      <path id="Path_653" data-name="Path 653" d="M109.724,286.1a55.334,55.334,0,0,0-2.131,11.495l-3.393-1.036A21.042,21.042,0,0,1,109.724,286.1Z" transform="translate(-3.009 -55.286)" fill="#2a2866"/>
      <path id="Path_654" data-name="Path 654" d="M252,580.915a54.734,54.734,0,0,0,11.025-3.865l.79,3.333A20.7,20.7,0,0,1,252,580.915Z" transform="translate(-134.594 -314.315)" fill="#2a2866"/>
      <path id="Path_655" data-name="Path 655" d="M404.73,276.3l2.563-2.3a20.965,20.965,0,0,1,6.3,9.914A54.431,54.431,0,0,0,404.73,276.3Z" transform="translate(-270.567 -44.513)" fill="#2a2866"/>
      <path id="Path_656" data-name="Path 656" d="M407.785,522.139,406.24,516.4l3.879-.731c.314,1.041.626,2.064.926,3.089a.38.38,0,0,1-.054.3A19.607,19.607,0,0,1,407.785,522.139Z" transform="translate(-271.912 -259.669)" fill="#2a2866"/>
      <path id="Path_657" data-name="Path 657" d="M313.275,228.059l-4.241,4.059c-.768-.906-1.623-1.913-2.6-3.072.775-.712,1.536-1.426,2.31-2.112a.621.621,0,0,1,.479-.134c1.355.336,2.7.7,4.059,1.05Z" transform="translate(-183.052 -2.487)" fill="#2a2866"/>
      <path id="Path_658" data-name="Path 658" d="M103.349,450.79l5.671,1.536-1.284,3.736c-1.059-.276-2.111-.549-3.158-.834a.375.375,0,0,1-.191-.246q-.541-1.975-1.06-3.964A.749.749,0,0,1,103.349,450.79Z" transform="translate(-2.232 -201.907)" fill="#2a2866"/>
    </g>
  </g>
</svg>
