<svg xmlns="http://www.w3.org/2000/svg" xmlns:xlink="http://www.w3.org/1999/xlink" width="40" height="37" viewBox="0 0 40 37">
  <defs>
    <clipPath id="clip-สนุกเกอร์">
      <rect width="40" height="37"/>
    </clipPath>
  </defs>
  <g id="สนุกเกอร์" clip-path="url(#clip-สนุกเกอร์)">
    <g id="snooker" transform="translate(0.682 -17.721)">
      <path id="Path_677" data-name="Path 677" d="M172.142,224.071a2.657,2.657,0,0,0,1.405-4.909c-.058-.032-.116-.065-.172-.1a2.655,2.655,0,1,0-1.233,5.008Z" transform="translate(-156.37 -185.189)" fill="#2a2866"/>
      <path id="Path_678" data-name="Path 678" d="M268.032,221.414a2.653,2.653,0,1,0,2.653-2.657A2.658,2.658,0,0,0,268.032,221.414Z" transform="translate(-247.285 -185.189)" fill="#2a2866"/>
      <ellipse id="Ellipse_1" data-name="Ellipse 1" cx="2.653" cy="2.657" rx="2.653" ry="2.657" transform="translate(9.306 40.18)" fill="#2a2866"/>
      <path id="Path_679" data-name="Path 679" d="M220.007,138.316c.058.032.116.065.172.1a2.64,2.64,0,0,0,2.466,0c.056-.034.114-.067.172-.1a2.653,2.653,0,1,0-2.811,0Z" transform="translate(-201.827 -106.445)" fill="#2a2866"/>
      <path id="Path_680" data-name="Path 680" d="M37.936,40.715,27.487,22.6a9.119,9.119,0,0,0-15.8,0L1.236,40.715a9.13,9.13,0,0,0,7.9,13.7h20.9a9.13,9.13,0,0,0,7.9-13.7Zm-10.722,7.1A4.964,4.964,0,0,1,23.4,46.029a4.964,4.964,0,0,1-7.628,0,4.975,4.975,0,1,1-4.673-8.1,4.98,4.98,0,0,1,3.812-6.611,4.975,4.975,0,1,1,9.35,0,4.98,4.98,0,0,1,3.812,6.611,4.979,4.979,0,0,1-.86,9.882Z" transform="translate(0 0)" fill="#2a2866"/>
      <path id="Path_681" data-name="Path 681" d="M221.414,304.168a2.657,2.657,0,1,0,2.653,2.657A2.658,2.658,0,0,0,221.414,304.168Z" transform="translate(-201.828 -263.988)" fill="#2a2866"/>
      <path id="Path_682" data-name="Path 682" d="M319.955,304.168a2.657,2.657,0,1,0,2.653,2.657A2.658,2.658,0,0,0,319.955,304.168Z" transform="translate(-292.741 -263.988)" fill="#2a2866"/>
    </g>
  </g>
</svg>
