<svg xmlns="http://www.w3.org/2000/svg" xmlns:xlink="http://www.w3.org/1999/xlink" width="49" height="49" viewBox="0 0 49 49">
  <defs>
    <clipPath id="clip-วอลเลบอล">
      <rect width="49" height="49"/>
    </clipPath>
  </defs>
  <g id="วอลเลบอล" clip-path="url(#clip-วอลเลบอล)">
    <g id="volleyball" transform="translate(5.191 5.162)">
      <g id="Group_12" data-name="Group 12" transform="translate(11.438 17.834)">
        <g id="Group_11" data-name="Group 11">
          <path id="Path_632" data-name="Path 632" d="M160.539,238.294a23.013,23.013,0,0,1-8.891,16.926,19.207,19.207,0,0,0,5.078,1.467l.731-.594a30.078,30.078,0,0,0,11.02-20.03A21.416,21.416,0,0,0,160.539,238.294Z" transform="translate(-151.648 -236.064)" fill="#2a2866"/>
        </g>
      </g>
      <g id="Group_14" data-name="Group 14" transform="translate(13.122 9.489)">
        <g id="Group_13" data-name="Group 13">
          <path id="Path_633" data-name="Path 633" d="M198.73,129.931l-.977-.6a25.98,25.98,0,0,0-23.768-1.849,21.337,21.337,0,0,0,6.212,6.294,23.268,23.268,0,0,1,19.158-.765A19.4,19.4,0,0,0,198.73,129.931Z" transform="translate(-173.984 -125.421)" fill="#2a2866"/>
        </g>
      </g>
      <g id="Group_16" data-name="Group 16" transform="translate(9.97 0.032)">
        <g id="Group_15" data-name="Group 15">
          <path id="Path_634" data-name="Path 634" d="M141.539.032a19.208,19.208,0,0,0-9.347,2.418l.01.087a21.73,21.73,0,0,0,1.965,6.891,28.2,28.2,0,0,1,24.456.92A19.3,19.3,0,0,0,141.539.032Z" transform="translate(-132.192 -0.032)" fill="#2a2866"/>
        </g>
      </g>
      <g id="Group_18" data-name="Group 18" transform="translate(3.649 3.908)">
        <g id="Group_17" data-name="Group 17">
          <path id="Path_635" data-name="Path 635" d="M52.482,51.424a19.377,19.377,0,0,0-4.1,4.175l.1.673A31.372,31.372,0,0,0,60.1,76.264a21.175,21.175,0,0,0,2.568-8.94A23,23,0,0,1,52.482,51.424Z" transform="translate(-48.384 -51.424)" fill="#2a2866"/>
        </g>
      </g>
      <g id="Group_20" data-name="Group 20" transform="translate(0 11.296)">
        <g id="Group_19" data-name="Group 19">
          <path id="Path_636" data-name="Path 636" d="M1.776,149.376A19.258,19.258,0,0,0,9.1,173.815l.232-.167a21.223,21.223,0,0,0,4.74-4.769A33.633,33.633,0,0,1,1.776,149.376Z" transform="translate(0 -149.376)" fill="#2a2866"/>
        </g>
      </g>
      <g id="Group_22" data-name="Group 22" transform="translate(20.015 17.798)">
        <g id="Group_21" data-name="Group 21">
          <path id="Path_637" data-name="Path 637" d="M283.653,237.4a21.453,21.453,0,0,0-7.588-1.817,32.253,32.253,0,0,1-10.689,20.848,19.3,19.3,0,0,0,18.6-18.888Z" transform="translate(-265.376 -235.584)" fill="#2a2866"/>
        </g>
      </g>
    </g>
  </g>
</svg>
